# xmcd CD database file
#
# Track frame offsets:
#	182
#	15055
#	31342
#	46497
#	58640
#	70447
#	83290
#	97852
#	113980
#	126755
#	137440
#	151677
#	164525
#	176360
#	190362
#	201960
#
# Disc length: 2875 seconds
#
# Revision: 0
# Processed by: cddbd v1.5.2PL0 Copyright (c) Steve Scherf et al.
# Submitted via: CDex 1.51
#
DISCID=c30b3910
DTITLE=Tommy Dorsey - jazz tribune vol.1
DYEAR=1935
DGENRE=Jazz
TTITLE0=weary blues
TTITLE1=i'm getting sentimental over you
TTITLE2=the music goes round and round
TTITLE3=rhythm in my nursery rhymes
TTITLE4=i'm shooting high
TTITLE5=the day i let you get away
TTITLE6=rhythm saved the world
TTITLE7=stardust
TTITLE8=royal garden blues
TTITLE9=jada
TTITLE10=at the codfish ball
TTITLE11=mary had a little lamb
TTITLE12=you've gotta eat your spinach baby
TTITLE13=on the beach at bali bali
TTITLE14=san fransisco
TTITLE15=that's a plenty
EXTD=YEAR: 1935
EXTT0=
EXTT1=
EXTT2=
EXTT3=
EXTT4=
EXTT5=
EXTT6=
EXTT7=
EXTT8=
EXTT9=
EXTT10=
EXTT11=
EXTT12=
EXTT13=
EXTT14=
EXTT15=
PLAYORDER=
